# xmcd CD database file
#
# Track frame offsets:
#	150
#	20713
#	35321
#	59819
#	77257
#	94911
#	109965
#	126387
#	145069
#
# Disc length: 2175 seconds
#
# Revision: 1
# Processed by: cddbd v1.5.2PL0 Copyright (c) Steve Scherf et al.
# Submitted via: CDex 1.51
#
DISCID=7b087d09
DTITLE=Clare Horgan - The Stolen Child
DYEAR=2001
DGENRE=Jazz
TTITLE0=But Not For Me
TTITLE1=In The Wee Small Hours
TTITLE2=Dindi
TTITLE3=An Leanbh Sidhe
TTITLE4=Woman Be Wise
TTITLE5=He's My Guy
TTITLE6=Detour Ahead
TTITLE7=Amhran na Leabhair
TTITLE8=Boys of Barr na Sraide
EXTD=YEAR: 2001
EXTT0=
EXTT1=
EXTT2=
EXTT3=
EXTT4=
EXTT5=
EXTT6=
EXTT7=
EXTT8=
PLAYORDER=
